<?xml version="1.0" encoding="UTF-8"?><svg id="Layer_1" xmlns="http://www.w3.org/2000/svg" viewBox="0 0 1145.24 1145.42"><defs><style>.cls-1{fill:#89d5f1;}</style></defs><path class="cls-1" d="M649.08,1038.71l29.28,29.26v48.17h48.16l29.28,29.28h-106.72v-106.71h0Zm76.5,79.72h-49.5v-49.51l-24.71-24.7v98.91h98.92l-24.71-24.71h0Z"/><path class="cls-1" d="M778.89,1038.71l29.28,29.26v48.17h48.16l29.28,29.28h-106.72v-106.71h0Zm76.5,79.72h-49.5v-49.51l-24.71-24.7v98.91h98.92l-24.71-24.71h0Z"/><path class="cls-1" d="M908.71,1038.71l29.28,29.26v48.17h48.16l29.28,29.28h-106.72v-106.71h0Zm76.5,79.72h-49.5v-49.51l-24.71-24.7v98.91h98.92l-24.71-24.71h0Z"/><path class="cls-1" d="M1038.52,1038.71l29.28,29.26v48.17h48.16l29.28,29.28h-106.72v-106.71h0Zm76.5,79.72h-49.5v-49.51l-24.71-24.7v98.91h98.92l-24.71-24.71h0Z"/><path class="cls-1" d="M519.26,1038.71l29.28,29.26v48.17h48.16l29.28,29.28h-106.72v-106.71h0Zm76.5,79.72h-49.5v-49.51l-24.71-24.7v98.91h98.92l-24.71-24.71h0Z"/><path class="cls-1" d="M389.45,1038.71l29.28,29.26v48.17h48.16l29.28,29.28h-106.72v-106.71h0Zm76.5,79.72h-49.5v-49.51l-24.71-24.7v98.91h98.92l-24.71-24.71h0Z"/><path class="cls-1" d="M259.63,1038.71l29.28,29.26v48.17h48.16l29.28,29.28h-106.72v-106.71h0Zm76.5,79.72h-49.5v-49.51l-24.71-24.7v98.91h98.92l-24.71-24.71h0Z"/><path class="cls-1" d="M259.63,908.87l28.95,28.96,.33,.33v48.17h48.16l29.28,29.28h-106.72v-106.74h0Zm76.5,79.75h-49.5v-49.51l-24.71-24.72v98.93h98.92l-24.71-24.71h0Z"/><path class="cls-1" d="M649.08,908.87l29.28,29.29v48.17h48.16l29.28,29.28h-106.72v-106.74h0Zm76.5,79.75h-49.5v-49.51l-24.71-24.72v98.93h98.92l-24.71-24.71h0Z"/><path class="cls-1" d="M778.89,908.87l29.28,29.29v48.17h48.16l29.28,29.28h-106.72v-106.74h0Zm76.5,79.75h-49.5v-49.51l-24.71-24.72v98.93h98.92l-24.71-24.71h0Z"/><path class="cls-1" d="M908.71,908.87l29.28,29.29v48.17h48.16l29.28,29.28h-106.72v-106.74h0Zm76.5,79.75h-49.5v-49.51l-24.71-24.72v98.93h98.92l-24.71-24.71h0Z"/><path class="cls-1" d="M519.26,908.87l28.95,28.96,.33,.33v48.17h48.16l29.28,29.28h-106.72v-106.74h0Zm76.5,79.75h-49.5v-49.51l-24.71-24.72v98.93h98.92l-24.71-24.71h0Z"/><path class="cls-1" d="M389.45,908.87l28.95,28.96,.33,.33v48.17h48.16l29.28,29.28h-106.72v-106.74h0Zm76.5,79.75h-49.5v-49.51l-24.71-24.72v98.93h98.92l-24.71-24.71h0Z"/><path class="cls-1" d="M649.08,779.06l29.28,29.26v48.17h48.16l29.28,29.28h-106.72v-106.71h0Zm76.5,79.72h-49.5v-49.51l-24.71-24.7v98.91h98.92l-24.71-24.71h0Z"/><path class="cls-1" d="M649.08,649.21l29.28,29.29v48.17h48.16l29.28,29.28h-106.72v-106.74h0Zm76.5,79.75h-49.5v-49.51l-24.71-24.72v98.93h98.92l-24.71-24.71h0Z"/><path class="cls-1" d="M778.89,779.06l29.28,29.26v48.17h48.17l29.28,29.28h-106.72v-106.71h-.01Zm76.5,79.72h-49.51v-49.51l-24.71-24.7v98.91h98.92l-24.71-24.71h.01Z"/><path class="cls-1" d="M389.45,779.06l29.28,29.26v48.17h48.16l29.28,29.28h-106.72v-106.71Zm76.5,79.72h-49.5v-49.51l-24.71-24.7v98.91h98.92l-24.71-24.71h0Z"/><path class="cls-1" d="M389.45,649.21l28.95,28.96,.33,.33v48.17h48.16l29.28,29.28h-106.72v-106.74h0Zm76.5,79.75h-49.5v-49.51l-24.71-24.72v98.93h98.92l-24.71-24.71h0Z"/><path class="cls-1" d="M389.45,519.37l29.28,29.29v48.17h48.16l29.28,29.28h-106.72v-106.74Zm76.5,79.75h-49.5v-49.51l-24.71-24.72v98.93h98.92l-24.71-24.71h0Z"/><path class="cls-1" d="M519.26,779.06l29.28,29.26v48.17h48.17l29.28,29.28h-106.72v-106.71h-.01Zm76.5,79.72h-49.51v-49.51l-24.71-24.7v98.91h98.92l-24.71-24.71h.01Z"/><path class="cls-1" d="M519.26,649.21l29.28,29.26v48.17h48.17l29.28,29.28h-106.72v-106.71h-.01Zm76.5,79.72h-49.51v-49.51l-24.71-24.7v98.91h98.92l-24.71-24.71h.01Z"/><path class="cls-1" d="M519.26,519.37l29.28,29.26v48.17h48.17l29.28,29.28h-106.72v-106.71h-.01Zm76.5,79.72h-49.51v-49.51l-24.71-24.7v98.91h98.92l-24.71-24.71h.01Z"/><path class="cls-1" d="M259.63,779.06l29.28,29.26v48.17h48.16l29.28,29.28h-106.72v-106.71Zm76.5,79.72h-49.5v-49.51l-24.71-24.7v98.91h98.92l-24.71-24.71h0Z"/><path class="cls-1" d="M259.63,649.21l28.95,28.96,.33,.33v48.17h48.16l29.28,29.28h-106.72v-106.74h0Zm76.5,79.75h-49.5v-49.51l-24.71-24.72v98.93h98.92l-24.71-24.71h0Z"/><path class="cls-1" d="M259.63,519.37l29.28,29.29v48.17h48.16l29.28,29.28h-106.72v-106.74Zm76.5,79.75h-49.5v-49.51l-24.71-24.72v98.93h98.92l-24.71-24.71h0Z"/><path class="cls-1" d="M129.82,1038.71l29.28,29.26v48.17h48.16l29.28,29.28h-106.72v-106.71h0Zm76.5,79.72h-49.5v-49.51l-24.71-24.7v98.91h98.92l-24.71-24.71h0Z"/><path class="cls-1" d="M129.82,908.87l28.95,28.96,.33,.33v48.17h48.16l29.28,29.28h-106.72v-106.74h0Zm76.5,79.75h-49.5v-49.51l-24.71-24.72v98.93h98.92l-24.71-24.71h0Z"/><path class="cls-1" d="M129.82,779.06l29.28,29.26v48.17h48.16l29.28,29.28h-106.72v-106.71h0Zm76.5,79.72h-49.5v-49.51l-24.71-24.7v98.91h98.92l-24.71-24.71h0Z"/><path class="cls-1" d="M129.82,649.21l28.95,28.96,.33,.33v48.17h48.16l29.28,29.28h-106.72v-106.74h0Zm76.5,79.75h-49.5v-49.51l-24.71-24.72v98.93h98.92l-24.71-24.71h0Z"/><path class="cls-1" d="M129.82,519.37l29.28,29.29v48.17h48.16l29.28,29.28h-106.72v-106.74h0Zm76.5,79.75h-49.5v-49.51l-24.71-24.72v98.93h98.92l-24.71-24.71h0Z"/><path class="cls-1" d="M129.82,908.87l28.95,28.96,.33,.33v48.17h48.16l29.28,29.28h-106.72v-106.74h0Zm76.5,79.75h-49.5v-49.51l-24.71-24.72v98.93h98.92l-24.71-24.71h0Z"/><path class="cls-1" d="M0,1038.71l29.28,29.26v48.17h48.16l29.28,29.28H0v-106.71H0Zm76.5,79.72H27v-49.51l-24.71-24.7v98.91H101.21l-24.71-24.71h0Z"/><path class="cls-1" d="M0,908.87l28.95,28.96,.33,.33v48.17h48.16l29.28,29.28H0v-106.74H0Zm76.5,79.75H27v-49.51l-24.71-24.72v98.93H101.21l-24.71-24.71h0Z"/><path class="cls-1" d="M0,779.06l29.28,29.26v48.17h48.16l29.28,29.28H0v-106.71Zm76.5,79.72H27v-49.51l-24.71-24.7v98.91H101.21l-24.71-24.71h0Z"/><path class="cls-1" d="M0,649.21l28.95,28.96,.33,.33v48.17h48.16l29.28,29.28H0v-106.74H0Zm76.5,79.75H27v-49.51l-24.71-24.72v98.93H101.21l-24.71-24.71h0Z"/><path class="cls-1" d="M0,519.37l29.28,29.29v48.17h48.16l29.28,29.28H0v-106.74Zm76.5,79.75H27v-49.51l-24.71-24.72v98.93H101.21l-24.71-24.71h0Z"/><path class="cls-1" d="M389.45,389.53l29.28,29.29v48.17h48.16l29.28,29.28h-106.72v-106.74h0Zm76.5,79.75h-49.5v-49.51l-24.71-24.72v98.93h98.92l-24.71-24.71h0Z"/><path class="cls-1" d="M259.63,389.53l29.28,29.29v48.17h48.16l29.28,29.28h-106.72v-106.74h0Zm76.5,79.75h-49.5v-49.51l-24.71-24.72v98.93h98.92l-24.71-24.71h0Z"/><path class="cls-1" d="M129.82,389.53l29.28,29.29v48.17h48.16l29.28,29.28h-106.72v-106.74h0Zm76.5,79.75h-49.5v-49.51l-24.71-24.72v98.93h98.92l-24.71-24.71h0Z"/><path class="cls-1" d="M0,389.53l29.28,29.29v48.17h48.16l29.28,29.28H0v-106.74H0Zm76.5,79.75H27v-49.51l-24.71-24.72v98.93H101.21l-24.71-24.71h0Z"/><path class="cls-1" d="M259.63,259.69l29.28,29.29v48.17h48.16l29.28,29.28h-106.72v-106.74h0Zm76.5,79.75h-49.5v-49.51l-24.71-24.72v98.93h98.92l-24.71-24.71h0Z"/><path class="cls-1" d="M129.82,259.69l29.28,29.29v48.17h48.16l29.28,29.28h-106.72v-106.74h0Zm76.5,79.75h-49.5v-49.51l-24.71-24.72v98.93h98.92l-24.71-24.71h0Z"/><path class="cls-1" d="M0,259.69l29.28,29.29v48.17h48.16l29.28,29.28H0v-106.74H0Zm76.5,79.75H27v-49.51l-24.71-24.72v98.93H101.21l-24.71-24.71h0Z"/><path class="cls-1" d="M129.82,129.84l29.28,29.29v48.17h48.16l29.28,29.28h-106.72v-106.74h0Zm76.5,79.75h-49.5v-49.51l-24.71-24.72v98.93h98.92l-24.71-24.71h0Z"/><path class="cls-1" d="M0,129.84l29.28,29.29v48.17h48.16l29.28,29.28H0v-106.74H0Zm76.5,79.75H27v-49.51L2.29,135.36v98.93H101.21l-24.71-24.71h0Z"/><path class="cls-1" d="M0,0L29.28,29.29v48.17h48.16l29.28,29.28H0V0ZM76.5,79.75H27V30.24L2.29,5.52V104.45H101.21l-24.71-24.71h0Z"/></svg>