<?xml version="1.0" encoding="UTF-8"?><svg id="Layer_1" xmlns="http://www.w3.org/2000/svg" viewBox="0 0 306.74 105.97"><defs><style>.cls-1{fill:#fff;}</style></defs><path class="cls-1" d="M103.31,42.39c-.55,.39-1.42,.58-2.62,.58s-2.51-.18-3.78-.54c-1.27-.36-2.42-.87-3.46-1.54l-1.52,4c1.01,.69,2.27,1.24,3.78,1.64,1.51,.4,3.15,.6,4.94,.6s3.31-.26,4.64-.78c1.33-.52,2.38-1.27,3.14-2.26,.76-.99,1.14-2.19,1.14-3.6,0-1.55-.47-2.77-1.4-3.66-.93-.89-2.29-1.5-4.08-1.82l-4.12-.72c-.72-.16-1.25-.4-1.58-.72-.33-.32-.5-.72-.5-1.2,0-.64,.29-1.16,.86-1.56s1.49-.6,2.74-.6c.96,0,1.99,.18,3.1,.54,1.11,.36,2.06,.85,2.86,1.46l1.64-3.84c-.96-.8-2.12-1.39-3.48-1.76-1.36-.37-2.8-.56-4.32-.56-1.79,0-3.35,.28-4.68,.84-1.33,.56-2.35,1.33-3.06,2.32-.71,.99-1.06,2.15-1.06,3.48,0,1.49,.45,2.71,1.36,3.64,.91,.93,2.21,1.56,3.92,1.88l4.16,.76c.75,.16,1.3,.39,1.66,.7,.36,.31,.54,.7,.54,1.18,0,.64-.27,1.15-.82,1.54Z"/><path class="cls-1" d="M133.55,30.93c-.76-1.57-1.8-2.78-3.12-3.62s-2.89-1.26-4.7-1.26c-1.63,0-3.08,.4-4.36,1.2-1.01,.63-1.73,1.43-2.17,2.38l-.38-3.14h-5.84c.13,.85,.22,1.72,.26,2.6,.04,.88,.06,1.76,.06,2.64v23.64h6.04v-11.49c.49,.85,1.2,1.55,2.14,2.11,1.27,.76,2.69,1.14,4.26,1.14,1.81,0,3.39-.41,4.72-1.24,1.33-.83,2.37-2.04,3.12-3.64,.75-1.6,1.12-3.49,1.12-5.68s-.38-4.07-1.14-5.64Zm-6.22,10.22c-.85,.97-2,1.46-3.44,1.46s-2.5-.49-3.34-1.46c-.84-.97-1.26-2.5-1.26-4.58s.42-3.57,1.26-4.54c.84-.97,1.95-1.46,3.34-1.46s2.59,.49,3.44,1.46c.85,.97,1.28,2.49,1.28,4.54s-.43,3.61-1.28,4.58Z"/><rect class="cls-1" x="138.57" y="26.49" width="6.04" height="20.24"/><rect class="cls-1" x="138.37" y="17.49" width="6.52" height="5.64"/><path class="cls-1" d="M162.03,31.19c.39,.07,.86,.22,1.42,.46l.08-5.28c-.32-.13-.62-.22-.9-.26s-.7-.06-1.26-.06c-1.12,0-2.13,.23-3.02,.68-.89,.45-1.64,1.15-2.24,2.08-.24,.37-.44,.78-.62,1.23l-.44-3.55h-5.84c.13,.85,.22,1.73,.26,2.64,.04,.91,.06,1.81,.06,2.72v14.88h6.12v-10.12c0-1.15,.17-2.14,.5-2.98,.33-.84,.88-1.47,1.64-1.9,.76-.43,1.7-.64,2.82-.64,.56,0,1.03,.03,1.42,.1Z"/><path class="cls-1" d="M183.81,36.25c0-2.03-.35-3.81-1.04-5.34-.69-1.53-1.7-2.73-3.02-3.58-1.32-.85-2.99-1.28-5.02-1.28s-3.79,.45-5.3,1.34c-1.51,.89-2.68,2.13-3.52,3.7-.84,1.57-1.26,3.4-1.26,5.48,0,3.28,.99,5.86,2.96,7.74,1.97,1.88,4.72,2.82,8.24,2.82,1.52,0,2.95-.2,4.28-.6,1.33-.4,2.48-.96,3.44-1.68l-1.64-4c-.88,.61-1.81,1.06-2.78,1.34-.97,.28-2.02,.42-3.14,.42-1.81,0-3.21-.48-4.2-1.44-.82-.8-1.28-1.99-1.42-3.52h13.42v-1.4Zm-13.4-1.56c.15-1.26,.5-2.27,1.06-3.04,.76-1.04,1.86-1.56,3.3-1.56,1.28,0,2.27,.43,2.96,1.3,.61,.77,.94,1.88,1.01,3.3h-8.33Z"/><path class="cls-1" d="M103.49,63.45c.83,0,1.67,.16,2.54,.48,.87,.32,1.63,.77,2.3,1.36l1.72-4.16c-.77-.75-1.81-1.31-3.12-1.7-1.31-.39-2.64-.58-4-.58-2.16,0-4.05,.41-5.66,1.24-1.61,.83-2.87,2.03-3.76,3.6-.89,1.57-1.34,3.45-1.34,5.64s.44,4.08,1.32,5.68,2.14,2.82,3.78,3.66c1.64,.84,3.53,1.26,5.66,1.26,1.33,0,2.65-.2,3.96-.6,1.31-.4,2.36-.96,3.16-1.68l-1.72-4.16c-.69,.59-1.47,1.04-2.32,1.36-.85,.32-1.69,.48-2.52,.48-1.63,0-2.89-.52-3.8-1.56-.91-1.04-1.36-2.52-1.36-4.44s.45-3.38,1.36-4.38c.91-1,2.17-1.5,3.8-1.5Z"/><path class="cls-1" d="M132.07,63.81c-.87-1.57-2.09-2.79-3.68-3.66-1.59-.87-3.46-1.3-5.62-1.3s-4.07,.43-5.66,1.3c-1.59,.87-2.81,2.07-3.68,3.62-.87,1.55-1.3,3.41-1.3,5.6s.43,4.07,1.3,5.64c.87,1.57,2.09,2.79,3.68,3.64,1.59,.85,3.46,1.28,5.62,1.28s4.07-.43,5.66-1.28c1.59-.85,2.81-2.07,3.68-3.64,.87-1.57,1.3-3.45,1.3-5.64s-.43-3.99-1.3-5.56Zm-6.02,10.14c-.83,.97-1.92,1.46-3.28,1.46s-2.53-.49-3.34-1.46c-.81-.97-1.22-2.49-1.22-4.54s.41-3.61,1.24-4.58c.83-.97,1.93-1.46,3.32-1.46s2.45,.49,3.28,1.46c.83,.97,1.24,2.5,1.24,4.58s-.41,3.57-1.24,4.54Z"/><path class="cls-1" d="M149.85,58.85c-1.6,0-3.02,.37-4.26,1.1-1.02,.6-1.83,1.41-2.46,2.42l-.36-3.08h-5.84c.13,.85,.22,1.72,.26,2.6,.04,.88,.06,1.76,.06,2.64v15h6.04v-11.36c0-1.41,.41-2.54,1.22-3.38,.81-.84,1.89-1.26,3.22-1.26,1.04,0,1.83,.31,2.38,.92,.55,.61,.82,1.65,.82,3.12v11.96h6.04v-12.24c0-2.88-.59-5.01-1.78-6.38-1.19-1.37-2.97-2.06-5.34-2.06Z"/><path class="cls-1" d="M172.73,67.81l-4.12-.72c-.72-.16-1.25-.4-1.58-.72-.33-.32-.5-.72-.5-1.2,0-.64,.29-1.16,.86-1.56s1.49-.6,2.74-.6c.96,0,1.99,.18,3.1,.54,1.11,.36,2.06,.85,2.86,1.46l1.64-3.84c-.96-.8-2.12-1.39-3.48-1.76-1.36-.37-2.8-.56-4.32-.56-1.79,0-3.35,.28-4.68,.84-1.33,.56-2.35,1.33-3.06,2.32-.71,.99-1.06,2.15-1.06,3.48,0,1.49,.45,2.71,1.36,3.64,.91,.93,2.21,1.56,3.92,1.88l4.16,.76c.75,.16,1.3,.39,1.66,.7,.36,.31,.54,.7,.54,1.18,0,.64-.27,1.15-.82,1.54-.55,.39-1.42,.58-2.62,.58s-2.51-.18-3.78-.54c-1.27-.36-2.42-.87-3.46-1.54l-1.52,4c1.01,.69,2.27,1.24,3.78,1.64,1.51,.4,3.15,.6,4.94,.6s3.31-.26,4.64-.78c1.33-.52,2.38-1.27,3.14-2.26,.76-.99,1.14-2.19,1.14-3.6,0-1.55-.47-2.77-1.4-3.66-.93-.89-2.29-1.5-4.08-1.82Z"/><path class="cls-1" d="M195.25,70.65c0,1.39-.39,2.5-1.18,3.34-.79,.84-1.78,1.26-2.98,1.26-1.07,0-1.87-.31-2.42-.92-.55-.61-.82-1.57-.82-2.88v-12.16h-6.04v12.2c0,2.85,.62,4.97,1.86,6.36,1.24,1.39,3.13,2.08,5.66,2.08,1.55,0,2.89-.37,4.02-1.1,.8-.52,1.47-1.2,2.02-2.04v2.74h5.92v-20.24h-6.04v11.36Z"/><rect class="cls-1" x="206.21" y="50.09" width="6.04" height="29.44"/><path class="cls-1" d="M224.77,52.81l-6.04,1.48v5h-3.84v4.44h3.84v8.28c0,2.67,.67,4.65,2,5.96,1.33,1.31,3.32,1.96,5.96,1.96,.53,0,1.08-.04,1.64-.12,.56-.08,1.09-.23,1.6-.44v-4.72c-.35,.13-.69,.24-1.04,.32-.35,.08-.76,.12-1.24,.12-.85,0-1.55-.24-2.08-.72s-.8-1.36-.8-2.64v-8h5.2v-4.44h-5.2v-6.48Z"/><rect class="cls-1" x="232.81" y="50.29" width="6.52" height="5.64"/><rect class="cls-1" x="233.01" y="59.29" width="6.04" height="20.24"/><path class="cls-1" d="M256.56,58.85c-1.6,0-3.02,.37-4.26,1.1-1.02,.6-1.83,1.41-2.46,2.42l-.36-3.08h-5.84c.13,.85,.22,1.72,.26,2.6,.04,.88,.06,1.76,.06,2.64v15h6.04v-11.36c0-1.41,.41-2.54,1.22-3.38,.81-.84,1.89-1.26,3.22-1.26,1.04,0,1.83,.31,2.38,.92,.55,.61,.82,1.65,.82,3.12v11.96h6.04v-12.24c0-2.88-.59-5.01-1.78-6.38-1.19-1.37-2.97-2.06-5.34-2.06Z"/><path class="cls-1" d="M283.41,59.29l-.35,3.1c-.47-.99-1.2-1.8-2.23-2.42-1.24-.75-2.67-1.12-4.3-1.12-1.81,0-3.39,.41-4.74,1.22-1.35,.81-2.39,1.98-3.14,3.5-.75,1.52-1.12,3.31-1.12,5.36s.37,3.84,1.12,5.36c.75,1.52,1.79,2.69,3.14,3.5,1.35,.81,2.93,1.22,4.74,1.22,1.63,0,3.07-.37,4.32-1.12,.97-.58,1.69-1.33,2.16-2.24v3.36c0,1.6-.44,2.83-1.32,3.68-.88,.85-2.21,1.28-4,1.28-.85,0-1.73-.08-2.62-.24-.89-.16-1.77-.39-2.62-.7-.85-.31-1.64-.7-2.36-1.18l-1.2,4.32c1.17,.77,2.53,1.35,4.08,1.74,1.55,.39,3.28,.58,5.2,.58,3.49,0,6.16-.87,8-2.62s2.76-4.27,2.76-7.58v-13.76c0-.88,.03-1.76,.08-2.64,.05-.88,.13-1.75,.24-2.6h-5.84Zm-1.74,13.76c-.84,.96-1.97,1.44-3.38,1.44s-2.58-.48-3.42-1.44-1.26-2.33-1.26-4.12,.42-3.16,1.26-4.12c.84-.96,1.98-1.44,3.42-1.44s2.54,.48,3.38,1.44c.84,.96,1.26,2.33,1.26,4.12s-.42,3.16-1.26,4.12Z"/><g><path class="cls-1" d="M50.34,26.01c2.36,2.36,3.68,3.68,6.04,6.04h12.02v12.02l6.04,6.04V26.01h-24.1Z"/><path class="cls-1" d="M17.49,26.01c2.36,2.36,3.68,3.68,6.04,6.04h12.02v12.02l6.04,6.04V26.01H17.49Z"/><path class="cls-1" d="M50.34,58.85c2.36,2.36,3.68,3.68,6.04,6.04h12.02v12.02c2.36,2.36,3.68,3.68,6.04,6.04v-24.1h-24.1Z"/></g></svg>