<?xml version="1.0" encoding="UTF-8"?><svg id="Layer_1" xmlns="http://www.w3.org/2000/svg" viewBox="0 0 229.76 89.05"><defs><style>.cls-1{fill:#fff;}</style></defs><g><path class="cls-1" d="M108.04,44.07l-5.5-1.04c-1.14-.26-1.97-.65-2.5-1.18-.53-.53-.8-1.2-.8-2.01,0-1.06,.44-1.93,1.32-2.61,.88-.68,2.27-1.02,4.18-1.02,1.39,0,2.82,.26,4.29,.77,1.47,.51,2.77,1.23,3.91,2.14l1.98-4.46c-1.25-1.1-2.78-1.92-4.59-2.47-1.82-.55-3.75-.83-5.8-.83-2.35,0-4.39,.38-6.13,1.13-1.74,.75-3.08,1.79-4.01,3.11-.94,1.32-1.4,2.84-1.4,4.56,0,2.02,.61,3.65,1.84,4.9,1.23,1.25,3.02,2.13,5.36,2.64l5.5,1.04c1.25,.26,2.15,.63,2.72,1.13s.85,1.16,.85,2.01c0,1.06-.45,1.91-1.35,2.53-.9,.62-2.26,.93-4.1,.93-1.72,0-3.43-.26-5.12-.77-1.69-.51-3.23-1.25-4.62-2.2l-1.92,4.62c1.36,1.03,3.03,1.82,5.03,2.39,2,.57,4.19,.85,6.57,.85s4.4-.35,6.16-1.04,3.13-1.71,4.12-3.03c.99-1.32,1.49-2.9,1.49-4.73,0-2.05-.63-3.68-1.9-4.87-1.27-1.19-3.13-2.03-5.58-2.5Z"/><path class="cls-1" d="M142.97,33.1c-1.83-1.16-3.98-1.73-6.44-1.73s-4.41,.58-6.19,1.73c-1.37,.89-2.38,2.02-3.02,3.39l-.47-4.57h-6.66c.15,1.14,.26,2.29,.33,3.46,.07,1.17,.11,2.33,.11,3.46v32.73h6.88v-16.15c.66,1.24,1.63,2.29,2.92,3.12,1.76,1.14,3.79,1.71,6.1,1.71,2.46,0,4.6-.58,6.44-1.73,1.83-1.16,3.26-2.81,4.29-4.98,1.03-2.16,1.54-4.75,1.54-7.75s-.51-5.58-1.54-7.73c-1.03-2.15-2.46-3.79-4.29-4.95Zm-3.08,19.58c-1.32,1.52-3.08,2.28-5.28,2.28s-3.91-.76-5.22-2.28c-1.32-1.52-1.98-3.82-1.98-6.9s.66-5.37,1.98-6.88c1.32-1.5,3.06-2.25,5.22-2.25s3.96,.75,5.28,2.25c1.32,1.5,1.98,3.79,1.98,6.88s-.66,5.38-1.98,6.9Z"/><rect class="cls-1" x="153.58" y="19.98" width="7.64" height="6.71"/><rect class="cls-1" x="153.97" y="31.92" width="6.88" height="27.78"/><path class="cls-1" d="M182.51,31.37c-1.47,0-2.82,.29-4.07,.88-1.25,.59-2.3,1.49-3.16,2.7-.39,.55-.73,1.18-1.02,1.86l-.5-4.88h-6.66c.15,1.14,.25,2.31,.3,3.52s.08,2.4,.08,3.57v20.68h6.93v-14.79c0-1.5,.27-2.84,.8-4.02,.53-1.17,1.34-2.09,2.42-2.75,1.08-.66,2.41-.99,3.99-.99,.73,0,1.35,.04,1.84,.11,.5,.07,1.09,.26,1.79,.55l.05-6.05c-.4-.15-.81-.25-1.21-.3-.4-.05-.93-.08-1.59-.08Z"/><path class="cls-1" d="M212.27,45.06c0-2.75-.47-5.15-1.4-7.21s-2.3-3.65-4.1-4.79c-1.8-1.14-4.03-1.71-6.71-1.71s-5.09,.6-7.12,1.82c-2.04,1.21-3.62,2.9-4.76,5.06-1.14,2.16-1.71,4.69-1.71,7.59,0,4.47,1.32,7.99,3.96,10.56,2.64,2.57,6.29,3.85,10.95,3.85,2.05,0,4-.29,5.83-.88,1.83-.59,3.41-1.41,4.73-2.48l-2.04-4.62c-1.25,.95-2.56,1.64-3.93,2.06s-2.85,.63-4.43,.63c-2.71,0-4.81-.74-6.3-2.23-1.33-1.33-2.06-3.29-2.2-5.86h19.22v-1.81Zm-12.16-8.97c2.05,0,3.62,.68,4.7,2.04,.97,1.21,1.48,2.94,1.58,5.12h-13.26c.23-1.94,.8-3.52,1.73-4.73,1.23-1.61,2.98-2.42,5.25-2.42Z"/></g><g><path class="cls-1" d="M50.34,17.49c2.36,2.36,3.68,3.68,6.04,6.04h12.02v12.02c2.36,2.36,3.68,3.68,6.04,6.04V17.49h-24.1Z"/><path class="cls-1" d="M17.49,17.49c2.36,2.36,3.68,3.68,6.04,6.04h12.02v12.02c2.36,2.36,3.68,3.68,6.04,6.04V17.49H17.49Z"/><path class="cls-1" d="M50.34,50.34c2.36,2.36,3.68,3.68,6.04,6.04h12.02v12.02l6.04,6.04v-24.1h-24.1Z"/></g></svg>